<svg width="1298" height="763" viewBox="0 0 1298 763" fill="none" xmlns="http://www.w3.org/2000/svg">
<path d="M772.293 755.938C529.895 737.491 240.823 549.672 255.54 356.281C270.257 162.889 550.226 -17.1415 792.625 1.30503C1035.02 19.7516 1174.56 381.167 1159.84 574.558C1145.12 767.949 1014.69 774.384 772.293 755.938Z" fill="#F2F2F2"/>
<path d="M737 711C1016.46 711 1243 697.121 1243 680C1243 662.879 1016.46 649 737 649C457.544 649 231 662.879 231 680C231 697.121 457.544 711 737 711Z" fill="#3F3D56"/>
<path opacity="0.1" d="M737 700C975.035 700 1168 690.822 1168 679.5C1168 668.178 975.035 659 737 659C498.965 659 306 668.178 306 679.5C306 690.822 498.965 700 737 700Z" fill="black"/>
<path d="M1120 86H368V676H1120V86Z" fill="#3F3D56"/>
<path d="M735.445 166.629H549.927C549.631 166.63 549.338 166.572 549.064 166.459C548.79 166.346 548.541 166.18 548.332 165.971C548.122 165.762 547.956 165.514 547.843 165.24C547.729 164.967 547.671 164.674 547.671 164.378C547.671 164.082 547.729 163.788 547.843 163.515C547.956 163.242 548.122 162.993 548.332 162.784C548.541 162.575 548.79 162.409 549.064 162.296C549.338 162.183 549.631 162.126 549.927 162.126H735.445C736.041 162.127 736.612 162.365 737.034 162.787C737.455 163.209 737.691 163.781 737.691 164.378C737.691 164.974 737.455 165.546 737.034 165.968C736.612 166.39 736.041 166.628 735.445 166.629V166.629Z" fill="#F2F2F2"/>
<path d="M938.523 191.395H646.738C646.141 191.395 645.569 191.158 645.146 190.735C644.724 190.313 644.487 189.741 644.487 189.143C644.487 188.546 644.724 187.974 645.146 187.551C645.569 187.129 646.141 186.892 646.738 186.892H938.523C938.819 186.892 939.112 186.95 939.385 187.063C939.658 187.176 939.906 187.342 940.115 187.551C940.325 187.76 940.49 188.009 940.604 188.282C940.717 188.555 940.775 188.848 940.775 189.143C940.775 189.439 940.717 189.732 940.604 190.005C940.49 190.278 940.325 190.526 940.115 190.735C939.906 190.944 939.658 191.11 939.385 191.223C939.112 191.337 938.819 191.395 938.523 191.395V191.395Z" fill="#F2F2F2"/>
<path d="M736.345 216.161H550.827C550.23 216.161 549.658 215.923 549.235 215.501C548.813 215.079 548.576 214.506 548.576 213.909C548.576 213.312 548.813 212.739 549.235 212.317C549.658 211.895 550.23 211.658 550.827 211.658H736.345C736.942 211.658 737.515 211.895 737.937 212.317C738.359 212.739 738.597 213.312 738.597 213.909C738.597 214.506 738.359 215.079 737.937 215.501C737.515 215.923 736.942 216.161 736.345 216.161V216.161Z" fill="#F2F2F2"/>
<path d="M938.523 216.611H753.006C752.409 216.611 751.836 216.374 751.414 215.951C750.991 215.529 750.754 214.957 750.754 214.359C750.754 213.762 750.991 213.19 751.414 212.767C751.836 212.345 752.409 212.108 753.006 212.108H938.523C939.12 212.108 939.693 212.345 940.115 212.767C940.538 213.19 940.775 213.762 940.775 214.359C940.775 214.957 940.538 215.529 940.115 215.951C939.693 216.374 939.12 216.611 938.523 216.611V216.611Z" fill="#F2F2F2"/>
<path d="M736.795 240.926H551.278C550.681 240.926 550.108 240.689 549.686 240.267C549.264 239.845 549.026 239.272 549.026 238.675C549.026 238.078 549.264 237.505 549.686 237.083C550.108 236.661 550.681 236.423 551.278 236.423H736.795C737.393 236.423 737.965 236.661 738.387 237.083C738.81 237.505 739.047 238.078 739.047 238.675C739.047 239.272 738.81 239.845 738.387 240.267C737.965 240.689 737.393 240.926 736.795 240.926V240.926Z" fill="#F2F2F2"/>
<path d="M737.246 265.692H551.728C551.131 265.692 550.558 265.455 550.136 265.033C549.714 264.61 549.477 264.038 549.477 263.441C549.477 262.844 549.714 262.271 550.136 261.849C550.558 261.426 551.131 261.189 551.728 261.189H737.246C737.843 261.189 738.416 261.426 738.838 261.849C739.26 262.271 739.497 262.844 739.497 263.441C739.497 264.038 739.26 264.61 738.838 265.033C738.416 265.455 737.843 265.692 737.246 265.692V265.692Z" fill="#F2F2F2"/>
<path d="M821.449 167.079H768.315C767.718 167.079 767.146 166.842 766.723 166.42C766.301 165.998 766.064 165.425 766.064 164.828C766.064 164.231 766.301 163.658 766.723 163.236C767.146 162.814 767.718 162.577 768.315 162.577H821.449C822.046 162.577 822.619 162.814 823.041 163.236C823.463 163.658 823.701 164.231 823.701 164.828C823.701 165.425 823.463 165.998 823.041 166.42C822.619 166.842 822.046 167.079 821.449 167.079V167.079Z" fill="#F2F2F2"/>
<path d="M821.449 240.926H768.315C767.718 240.926 767.146 240.689 766.723 240.267C766.301 239.845 766.064 239.272 766.064 238.675C766.064 238.078 766.301 237.505 766.723 237.083C767.146 236.661 767.718 236.423 768.315 236.423H821.449C822.046 236.423 822.619 236.661 823.041 237.083C823.463 237.505 823.701 238.078 823.701 238.675C823.701 239.272 823.463 239.845 823.041 240.267C822.619 240.689 822.046 240.926 821.449 240.926V240.926Z" fill="#F2F2F2"/>
<path d="M821.449 265.242H768.315C768.019 265.242 767.726 265.185 767.452 265.072C767.179 264.959 766.93 264.793 766.72 264.584C766.511 264.375 766.345 264.126 766.231 263.853C766.118 263.58 766.059 263.286 766.059 262.99C766.059 262.694 766.118 262.401 766.231 262.128C766.345 261.854 766.511 261.606 766.72 261.397C766.93 261.188 767.179 261.022 767.452 260.909C767.726 260.796 768.019 260.738 768.315 260.739H821.449C821.745 260.738 822.038 260.796 822.312 260.909C822.586 261.022 822.835 261.188 823.044 261.397C823.254 261.606 823.42 261.854 823.533 262.128C823.647 262.401 823.705 262.694 823.705 262.99C823.705 263.286 823.647 263.58 823.533 263.853C823.42 264.126 823.254 264.375 823.044 264.584C822.835 264.793 822.586 264.959 822.312 265.072C822.038 265.185 821.745 265.242 821.449 265.242V265.242Z" fill="#F2F2F2"/>
<path d="M910.606 265.242H857.472C856.876 265.24 856.304 265.003 855.883 264.581C855.462 264.159 855.225 263.587 855.225 262.99C855.225 262.394 855.462 261.822 855.883 261.4C856.304 260.978 856.876 260.74 857.472 260.739H910.606C910.902 260.738 911.195 260.796 911.469 260.909C911.742 261.022 911.991 261.188 912.201 261.397C912.41 261.606 912.577 261.854 912.69 262.128C912.803 262.401 912.862 262.694 912.862 262.99C912.862 263.286 912.803 263.58 912.69 263.853C912.577 264.126 912.41 264.375 912.201 264.584C911.991 264.793 911.742 264.959 911.469 265.072C911.195 265.185 910.902 265.242 910.606 265.242V265.242Z" fill="#F2F2F2"/>
<path d="M602.61 191.395H549.477C548.879 191.395 548.307 191.158 547.885 190.735C547.462 190.313 547.225 189.741 547.225 189.143C547.225 188.546 547.462 187.974 547.885 187.551C548.307 187.129 548.879 186.892 549.477 186.892H602.61C603.207 186.892 603.78 187.129 604.202 187.551C604.625 187.974 604.862 188.546 604.862 189.143C604.862 189.741 604.625 190.313 604.202 190.735C603.78 191.158 603.207 191.395 602.61 191.395V191.395Z" fill="#F2F2F2"/>
<path d="M735.67 531.361H550.152C549.555 531.361 548.982 531.123 548.56 530.701C548.138 530.279 547.901 529.706 547.901 529.109C547.901 528.512 548.138 527.939 548.56 527.517C548.982 527.095 549.555 526.858 550.152 526.858H735.67C736.267 526.858 736.84 527.095 737.262 527.517C737.684 527.939 737.921 528.512 737.921 529.109C737.921 529.706 737.684 530.279 737.262 530.701C736.84 531.123 736.267 531.361 735.67 531.361Z" fill="#F2F2F2"/>
<path d="M734.769 580.892H549.251C548.654 580.892 548.082 580.655 547.659 580.233C547.237 579.81 547 579.238 547 578.641C547 578.043 547.237 577.471 547.659 577.049C548.082 576.626 548.654 576.389 549.251 576.389H734.769C735.366 576.389 735.939 576.626 736.361 577.049C736.783 577.471 737.021 578.043 737.021 578.641C737.021 579.238 736.783 579.81 736.361 580.233C735.939 580.655 735.366 580.892 734.769 580.892Z" fill="#F2F2F2"/>
<path d="M735.219 605.658H549.702C549.406 605.658 549.112 605.6 548.839 605.488C548.565 605.375 548.316 605.209 548.107 605C547.897 604.791 547.731 604.542 547.617 604.269C547.504 603.995 547.446 603.702 547.446 603.406C547.446 603.11 547.504 602.817 547.617 602.544C547.731 602.27 547.897 602.022 548.107 601.813C548.316 601.603 548.565 601.438 548.839 601.325C549.112 601.212 549.406 601.154 549.702 601.155H735.219C735.516 601.154 735.809 601.212 736.082 601.325C736.356 601.438 736.605 601.603 736.814 601.813C737.024 602.022 737.19 602.27 737.304 602.544C737.417 602.817 737.476 603.11 737.476 603.406C737.476 603.702 737.417 603.995 737.304 604.269C737.19 604.542 737.024 604.791 736.814 605C736.605 605.209 736.356 605.375 736.082 605.488C735.809 605.6 735.516 605.658 735.219 605.658V605.658Z" fill="#F2F2F2"/>
<path d="M814.47 581.342H761.336C760.739 581.342 760.166 581.105 759.744 580.683C759.322 580.261 759.085 579.688 759.085 579.091C759.085 578.494 759.322 577.921 759.744 577.499C760.166 577.077 760.739 576.839 761.336 576.839H814.47C815.067 576.839 815.639 577.077 816.062 577.499C816.484 577.921 816.721 578.494 816.721 579.091C816.721 579.688 816.484 580.261 816.062 580.683C815.639 581.105 815.067 581.342 814.47 581.342Z" fill="#F2F2F2"/>
<path d="M814.47 605.658H761.336C760.739 605.658 760.166 605.42 759.744 604.998C759.322 604.576 759.085 604.003 759.085 603.406C759.085 602.809 759.322 602.236 759.744 601.814C760.166 601.392 760.739 601.155 761.336 601.155H814.47C815.067 601.155 815.639 601.392 816.062 601.814C816.484 602.236 816.721 602.809 816.721 603.406C816.721 604.003 816.484 604.576 816.062 604.998C815.639 605.42 815.067 605.658 814.47 605.658V605.658Z" fill="#F2F2F2"/>
<path d="M903.626 581.342H850.493C849.895 581.342 849.323 581.105 848.901 580.683C848.478 580.261 848.241 579.688 848.241 579.091C848.241 578.494 848.478 577.921 848.901 577.499C849.323 577.077 849.895 576.839 850.493 576.839H903.626C904.223 576.839 904.796 577.077 905.218 577.499C905.64 577.921 905.878 578.494 905.878 579.091C905.878 579.688 905.64 580.261 905.218 580.683C904.796 581.105 904.223 581.342 903.626 581.342V581.342Z" fill="#F2F2F2"/>
<path d="M938.749 556.126H646.963C646.366 556.126 645.794 555.889 645.371 555.467C644.949 555.045 644.712 554.472 644.712 553.875C644.712 553.278 644.949 552.705 645.371 552.283C645.794 551.861 646.366 551.623 646.963 551.623H938.749C939.346 551.623 939.918 551.861 940.341 552.283C940.763 552.705 941 553.278 941 553.875C941 554.472 940.763 555.045 940.341 555.467C939.918 555.889 939.346 556.126 938.749 556.126V556.126Z" fill="#F2F2F2"/>
<path d="M602.835 556.126H549.702C549.105 556.126 548.532 555.889 548.11 555.467C547.687 555.045 547.45 554.472 547.45 553.875C547.45 553.278 547.687 552.705 548.11 552.283C548.532 551.861 549.105 551.623 549.702 551.623H602.835C603.433 551.623 604.005 551.861 604.427 552.283C604.85 552.705 605.087 553.278 605.087 553.875C605.087 554.472 604.85 555.045 604.427 555.467C604.005 555.889 603.433 556.126 602.835 556.126V556.126Z" fill="#F2F2F2"/>
<path d="M938.749 630.874H646.963C646.667 630.874 646.374 630.817 646.1 630.704C645.827 630.591 645.578 630.425 645.368 630.216C645.159 630.007 644.993 629.758 644.879 629.485C644.766 629.212 644.707 628.918 644.707 628.622C644.707 628.326 644.766 628.033 644.879 627.76C644.993 627.486 645.159 627.238 645.368 627.029C645.578 626.82 645.827 626.654 646.1 626.541C646.374 626.428 646.667 626.37 646.963 626.371H938.749C939.346 626.371 939.918 626.608 940.341 627.03C940.763 627.453 941 628.025 941 628.622C941 629.219 940.763 629.792 940.341 630.214C939.918 630.637 939.346 630.874 938.749 630.874V630.874Z" fill="#F2F2F2"/>
<path d="M602.835 630.874H549.702C549.406 630.874 549.112 630.817 548.839 630.704C548.565 630.591 548.316 630.425 548.107 630.216C547.897 630.007 547.731 629.758 547.617 629.485C547.504 629.212 547.446 628.918 547.446 628.622C547.446 628.326 547.504 628.033 547.617 627.76C547.731 627.486 547.897 627.238 548.107 627.029C548.316 626.82 548.565 626.654 548.839 626.541C549.112 626.428 549.406 626.37 549.702 626.371H602.835C603.131 626.37 603.425 626.428 603.698 626.541C603.972 626.654 604.221 626.82 604.431 627.029C604.64 627.238 604.806 627.486 604.92 627.76C605.033 628.033 605.092 628.326 605.092 628.622C605.092 628.918 605.033 629.212 604.92 629.485C604.806 629.758 604.64 630.007 604.431 630.216C604.221 630.425 603.972 630.591 603.698 630.704C603.425 630.817 603.131 630.874 602.835 630.874Z" fill="#F2F2F2"/>
<path d="M690.866 325.13L618.82 396.275L690.866 467.42L707.076 451.21L652.592 396.725L707.526 341.79L690.866 325.13Z" fill="#00ECDD"/>
<path d="M797.133 325.13L869.179 396.275L797.133 467.42L780.923 451.21L835.408 396.725L780.473 341.79L797.133 325.13Z" fill="#00ECDD"/>
<path d="M395.806 130C400.777 130 404.806 125.971 404.806 121C404.806 116.029 400.777 112 395.806 112C390.836 112 386.806 116.029 386.806 121C386.806 125.971 390.836 130 395.806 130Z" fill="#00ECDD"/>
<path d="M426.806 130C431.777 130 435.806 125.971 435.806 121C435.806 116.029 431.777 112 426.806 112C421.836 112 417.806 116.029 417.806 121C417.806 125.971 421.836 130 426.806 130Z" fill="#00ECDD"/>
<path d="M457.806 130C462.777 130 466.806 125.971 466.806 121C466.806 116.029 462.777 112 457.806 112C452.836 112 448.806 116.029 448.806 121C448.806 125.971 452.836 130 457.806 130Z" fill="#00ECDD"/>
<path opacity="0.1" d="M1119.81 141H367.806V144H1119.81V141Z" fill="black"/>
<path d="M1298 531.454C1298 595.225 1260.09 617.491 1213.32 617.491C1166.56 617.491 1128.65 595.225 1128.65 531.454C1128.65 467.682 1213.32 386.556 1213.32 386.556C1213.32 386.556 1298 467.682 1298 531.454Z" fill="#F2F2F2"/>
<path d="M1210.24 607.736L1211.11 554.365L1247.2 488.338L1211.24 545.993L1211.63 521.995L1236.51 474.226L1211.74 515.645L1212.44 472.484L1239.07 434.453L1212.55 465.697L1212.98 386.556L1210.23 491.325L1210.46 487.003L1183.38 445.552L1210.02 495.3L1207.5 543.503L1207.43 542.223L1176.21 498.602L1207.33 546.743L1207.02 552.771L1206.96 552.862L1206.98 553.357L1200.58 675.653H1209.14L1210.16 612.485L1241.21 564.461L1210.24 607.736Z" fill="#3F3D56"/>
<g clip-path="url(#clip0)">
<path d="M343.344 726.41C465.399 726.41 564.344 721.709 564.344 715.91C564.344 710.111 465.399 705.41 343.344 705.41C221.289 705.41 122.344 710.111 122.344 715.91C122.344 721.709 221.289 726.41 343.344 726.41Z" fill="#39374D"/>
<path d="M458.344 291.41L462.344 284.41L442.344 280.41L440.344 290.41L443.344 298.41L458.344 291.41Z" fill="#00ECDD"/>
<path opacity="0.2" d="M458.344 291.41L462.344 284.41L442.344 280.41L440.344 290.41L443.344 298.41L458.344 291.41Z" fill="black"/>
<path d="M446.844 286.91C461.203 286.91 472.844 275.269 472.844 260.91C472.844 246.55 461.203 234.91 446.844 234.91C432.485 234.91 420.844 246.55 420.844 260.91C420.844 275.269 432.485 286.91 446.844 286.91Z" fill="#F0CABD"/>
<path d="M424.844 260.91L403.844 295.91L434.844 313.91L450.844 276.91L424.844 260.91Z" fill="#F0CABD"/>
<path d="M422.844 301.91L395.844 290.91C395.844 290.91 354.844 297.91 350.844 310.91C346.844 323.91 346.844 428.91 346.844 428.91C346.844 428.91 336.844 454.91 350.844 455.91C350.844 455.91 346.844 461.91 350.844 462.91C354.844 463.91 395.844 462.91 411.844 467.91C427.844 472.91 459.844 476.91 459.844 471.91V462.91C459.844 462.91 466.844 455.91 462.844 443.91C458.844 431.91 453.844 405.91 453.844 405.91C453.844 405.91 483.844 339.91 480.844 331.91C477.844 323.91 441.217 299.172 441.217 299.172L422.844 301.91Z" fill="#3E699A"/>
<path d="M360.844 428.91L361.844 436.91L375.844 419.91H370.844L360.844 428.91Z" fill="#D4B8AF"/>
<path d="M422.844 301.91L393.844 294.91C393.844 294.91 387.844 289.91 387.844 283.91C387.844 277.91 396.844 268.91 402.844 262.91C403.366 262.374 403.992 261.95 404.683 261.663C405.374 261.376 406.116 261.232 406.864 261.239C412.804 261.189 420.004 268.98 420.004 268.98L412.014 282.31L411.654 282.899L422.844 301.91Z" fill="#3E699A"/>
<path d="M445.197 289.968L462.344 284.41C462.344 284.41 467.844 305.91 461.844 306.91C455.844 307.91 422.844 304.91 422.844 304.91L445.197 289.968Z" fill="#3E699A"/>
<path d="M352.844 457.91L339.844 531.91C339.844 531.91 334.844 540.91 336.844 544.91C338.844 548.91 339.844 548.91 336.844 550.91C333.844 552.91 329.844 550.91 330.844 555.91C331.443 558.874 331.778 561.886 331.844 564.91L303.844 660.91C303.844 660.91 285.844 668.91 298.844 673.91C311.844 678.91 324.844 682.91 327.844 677.91C330.844 672.91 327.844 666.91 327.844 666.91L373.844 556.91C373.844 556.91 380.844 546.91 380.844 540.91C380.844 534.91 403.844 491.91 403.844 491.91C403.844 491.91 404.844 534.91 405.844 537.91C406.844 540.91 403.844 546.91 403.844 550.91C403.844 554.91 401.844 554.91 403.844 556.91C405.844 558.91 405.844 581.91 405.844 581.91C405.844 581.91 393.844 670.91 400.844 671.91C407.844 672.91 427.844 670.91 427.844 666.91C427.844 662.91 424.844 661.91 424.844 661.91L437.844 585.91C437.844 585.91 436.844 580.91 438.844 576.91C440.844 572.91 440.844 572.91 440.844 570.91C440.844 568.91 439.844 567.91 440.844 566.91C441.497 566.046 441.849 564.992 441.844 563.91C441.844 563.91 439.844 557.91 440.844 556.91C441.844 555.91 463.844 480.91 456.844 471.91C449.844 462.91 352.844 457.91 352.844 457.91Z" fill="#2F2E41"/>
<path d="M401.844 668.91L394.844 684.91C394.844 684.91 378.844 702.91 390.844 706.91C402.844 710.91 406.844 709.91 406.844 709.91C406.844 709.91 411.844 710.91 411.844 712.91C411.844 714.91 451.844 729.91 454.844 716.91C457.844 703.91 423.844 679.91 423.844 679.91V667.91L401.844 668.91Z" fill="#2F2E41"/>
<path d="M324.709 676.316L326.223 693.714C326.223 693.714 335.625 715.886 322.976 715.838C310.327 715.789 306.857 713.562 306.857 713.562C306.857 713.562 301.8 712.91 301.16 714.805C300.52 716.7 257.824 718.117 259.14 704.84C260.456 691.564 300.347 679.701 300.347 679.701L304.185 668.331L324.709 676.316Z" fill="#2F2E41"/>
<path d="M421.52 268.027C423.126 267.919 424.197 266.169 424.641 264.503C425.086 262.838 425.199 261.013 426.106 259.582C428.592 255.66 435.056 257.244 437.681 253.429C439.296 251.082 438.958 247.261 441.288 245.768C442.76 244.826 444.636 245.311 446.258 245.904C452.543 248.217 458.346 251.673 463.374 256.097L465.462 254.397L468.07 259.612C469.081 258.392 471.032 259.338 471.88 260.693C472.729 262.049 473.14 263.781 474.35 264.769C476.279 266.343 479.292 265.01 480.46 262.728C481.628 260.445 481.435 257.656 481.03 255.086C480.022 248.65 477.872 242.445 474.682 236.764L477.068 235.333L473.983 234.892L475.164 232.213L471.932 232.176L473.208 229.886C468.864 231.377 464.374 228.646 460.225 226.61C453.284 223.205 445.477 221.571 437.941 222.836C434.08 223.463 430.391 224.887 427.111 227.018C423.83 229.149 421.03 231.94 418.887 235.213C415.601 240.379 413.704 247.88 415.347 254.067C416.84 259.69 423.358 260.565 421.52 268.027Z" fill="#2F2E41"/>
<path d="M356.844 306.91C356.844 306.91 350.844 305.91 346.844 313.91C342.844 321.91 312.844 385.91 327.844 405.91C342.844 425.91 356.844 431.91 356.844 431.91L359.844 432.91L374.844 416.91L369.844 409.91C369.844 409.91 369.844 402.91 365.844 401.91C361.844 400.91 361.844 403.91 360.844 399.91C359.844 395.91 364.844 398.91 359.844 394.91C354.844 390.91 358.844 388.91 358.844 388.91L356.844 306.91Z" fill="#3E699A"/>
<path d="M462.844 440.41L461.844 448.41L447.844 431.41H452.844L462.844 440.41Z" fill="#D4B8AF"/>
<path d="M461.344 328.41C461.344 328.41 475.344 321.41 479.344 329.41C483.344 337.41 510.844 397.41 495.844 417.41C480.844 437.41 466.844 443.41 466.844 443.41L463.844 444.41L448.844 428.41L453.844 421.41C453.844 421.41 453.844 414.41 457.844 413.41C461.844 412.41 461.844 415.41 462.844 411.41C463.844 407.41 458.844 410.41 463.844 406.41C468.844 402.41 464.844 400.41 464.844 400.41L461.344 328.41Z" fill="#3E699A"/>
<path opacity="0.2" d="M366.344 346.41L355.344 390.41L368.344 406.41L362.344 386.41L366.344 346.41Z" fill="black"/>
<path opacity="0.2" d="M420.004 268.98L412.014 282.31C406.994 280.57 406.574 268.92 406.864 261.239C412.804 261.19 420.004 268.98 420.004 268.98Z" fill="black"/>
<circle cx="428.5" cy="219.5" r="15.5" fill="#2F2E41"/>
</g>
<path d="M1045.36 649.889C1045.36 650.865 1045.13 651.648 1044.69 652.238C1044.25 652.824 1043.65 653.117 1042.9 653.117C1042.26 653.117 1041.74 652.895 1041.34 652.449V655.438H1039.65V646.66H1041.22L1041.28 647.281C1041.69 646.789 1042.22 646.543 1042.88 646.543C1043.67 646.543 1044.27 646.832 1044.71 647.41C1045.14 647.988 1045.36 648.785 1045.36 649.801V649.889ZM1043.66 649.766C1043.66 649.176 1043.56 648.721 1043.35 648.4C1043.14 648.08 1042.84 647.92 1042.44 647.92C1041.91 647.92 1041.54 648.123 1041.34 648.529V651.125C1041.55 651.543 1041.92 651.752 1042.45 651.752C1043.26 651.752 1043.66 651.09 1043.66 649.766ZM1050.09 653C1050.01 652.848 1049.95 652.658 1049.92 652.432C1049.51 652.889 1048.97 653.117 1048.32 653.117C1047.7 653.117 1047.18 652.938 1046.77 652.578C1046.36 652.219 1046.16 651.766 1046.16 651.219C1046.16 650.547 1046.41 650.031 1046.9 649.672C1047.4 649.312 1048.12 649.131 1049.07 649.127H1049.85V648.764C1049.85 648.471 1049.77 648.236 1049.62 648.061C1049.47 647.885 1049.23 647.797 1048.91 647.797C1048.62 647.797 1048.4 647.865 1048.23 648.002C1048.07 648.139 1047.99 648.326 1047.99 648.564H1046.3C1046.3 648.197 1046.41 647.857 1046.64 647.545C1046.87 647.232 1047.19 646.988 1047.6 646.812C1048.02 646.633 1048.48 646.543 1049 646.543C1049.78 646.543 1050.4 646.74 1050.85 647.135C1051.31 647.525 1051.54 648.076 1051.54 648.787V651.535C1051.55 652.137 1051.63 652.592 1051.8 652.9V653H1050.09ZM1048.69 651.822C1048.94 651.822 1049.17 651.768 1049.38 651.658C1049.59 651.545 1049.74 651.395 1049.85 651.207V650.117H1049.21C1048.37 650.117 1047.91 650.41 1047.86 650.996L1047.85 651.096C1047.85 651.307 1047.93 651.48 1048.08 651.617C1048.22 651.754 1048.43 651.822 1048.69 651.822ZM1054.87 645.102V646.66H1055.96V647.902H1054.87V651.066C1054.87 651.301 1054.92 651.469 1055.01 651.57C1055.1 651.672 1055.27 651.723 1055.52 651.723C1055.71 651.723 1055.88 651.709 1056.02 651.682V652.965C1055.69 653.066 1055.35 653.117 1055 653.117C1053.81 653.117 1053.2 652.518 1053.18 651.318V647.902H1052.25V646.66H1053.18V645.102H1054.87ZM1058.69 653H1056.99V644H1058.69V653ZM1059.82 649.771C1059.82 649.143 1059.95 648.582 1060.19 648.09C1060.43 647.598 1060.78 647.217 1061.23 646.947C1061.69 646.678 1062.22 646.543 1062.82 646.543C1063.67 646.543 1064.37 646.805 1064.91 647.328C1065.45 647.852 1065.76 648.562 1065.82 649.461L1065.83 649.895C1065.83 650.867 1065.56 651.648 1065.02 652.238C1064.47 652.824 1063.74 653.117 1062.83 653.117C1061.92 653.117 1061.19 652.824 1060.64 652.238C1060.1 651.652 1059.82 650.855 1059.82 649.848V649.771ZM1061.52 649.895C1061.52 650.496 1061.63 650.957 1061.86 651.277C1062.08 651.594 1062.41 651.752 1062.83 651.752C1063.24 651.752 1063.56 651.596 1063.79 651.283C1064.02 650.967 1064.14 650.463 1064.14 649.771C1064.14 649.182 1064.02 648.725 1063.79 648.4C1063.56 648.076 1063.24 647.914 1062.82 647.914C1062.4 647.914 1062.08 648.076 1061.86 648.4C1061.63 648.721 1061.52 649.219 1061.52 649.895ZM1072.58 649.889C1072.58 650.865 1072.36 651.648 1071.91 652.238C1071.47 652.824 1070.87 653.117 1070.12 653.117C1069.48 653.117 1068.96 652.895 1068.57 652.449V655.438H1066.87V646.66H1068.44L1068.5 647.281C1068.91 646.789 1069.45 646.543 1070.11 646.543C1070.89 646.543 1071.5 646.832 1071.93 647.41C1072.36 647.988 1072.58 648.785 1072.58 649.801V649.889ZM1070.89 649.766C1070.89 649.176 1070.78 648.721 1070.57 648.4C1070.36 648.08 1070.06 647.92 1069.66 647.92C1069.13 647.92 1068.77 648.123 1068.57 648.529V651.125C1068.77 651.543 1069.14 651.752 1069.67 651.752C1070.48 651.752 1070.89 651.09 1070.89 649.766ZM1076.55 653.117C1075.62 653.117 1074.87 652.832 1074.28 652.262C1073.7 651.691 1073.41 650.932 1073.41 649.982V649.818C1073.41 649.182 1073.53 648.613 1073.78 648.113C1074.02 647.609 1074.37 647.223 1074.82 646.953C1075.27 646.68 1075.79 646.543 1076.37 646.543C1077.23 646.543 1077.91 646.816 1078.41 647.363C1078.91 647.91 1079.16 648.686 1079.16 649.689V650.381H1075.12C1075.18 650.795 1075.34 651.127 1075.62 651.377C1075.89 651.627 1076.24 651.752 1076.66 651.752C1077.32 651.752 1077.83 651.516 1078.19 651.043L1079.03 651.975C1078.77 652.334 1078.43 652.615 1077.99 652.818C1077.56 653.018 1077.08 653.117 1076.55 653.117ZM1076.36 647.914C1076.02 647.914 1075.75 648.027 1075.54 648.254C1075.33 648.48 1075.2 648.805 1075.14 649.227H1077.5V649.092C1077.49 648.717 1077.39 648.428 1077.19 648.225C1077 648.018 1076.72 647.914 1076.36 647.914ZM1083.56 651.248C1083.56 651.041 1083.46 650.879 1083.25 650.762C1083.05 650.641 1082.72 650.533 1082.27 650.439C1080.76 650.123 1080 649.482 1080 648.518C1080 647.955 1080.24 647.486 1080.7 647.111C1081.17 646.732 1081.78 646.543 1082.54 646.543C1083.34 646.543 1083.98 646.732 1084.46 647.111C1084.95 647.49 1085.19 647.982 1085.19 648.588H1083.5C1083.5 648.346 1083.42 648.146 1083.26 647.99C1083.11 647.83 1082.86 647.75 1082.53 647.75C1082.24 647.75 1082.02 647.814 1081.87 647.943C1081.71 648.072 1081.63 648.236 1081.63 648.436C1081.63 648.623 1081.72 648.775 1081.9 648.893C1082.08 649.006 1082.38 649.105 1082.8 649.191C1083.22 649.273 1083.58 649.367 1083.87 649.473C1084.76 649.801 1085.21 650.369 1085.21 651.178C1085.21 651.756 1084.96 652.225 1084.46 652.584C1083.97 652.939 1083.33 653.117 1082.54 653.117C1082.01 653.117 1081.54 653.023 1081.12 652.836C1080.71 652.645 1080.39 652.385 1080.16 652.057C1079.92 651.725 1079.8 651.367 1079.8 650.984H1081.41C1081.43 651.285 1081.54 651.516 1081.74 651.676C1081.95 651.836 1082.23 651.916 1082.58 651.916C1082.9 651.916 1083.14 651.855 1083.31 651.734C1083.48 651.609 1083.56 651.447 1083.56 651.248Z" fill="#00ECDD"/>
<defs>
<clipPath id="clip0">
<rect width="921.72" height="653.41" fill="white" transform="translate(0 73)"/>
</clipPath>
</defs>
</svg>
